<?xml version="1.0" encoding="utf-8"?>
<!-- Generator: Adobe Illustrator 19.0.0, SVG Export Plug-In . SVG Version: 6.00 Build 0)  -->
<svg version="1.1" id="Layer_1" xmlns="http://www.w3.org/2000/svg" xmlns:xlink="http://www.w3.org/1999/xlink" x="0px" y="0px"
	 viewBox="194 47 1000 700" style="enable-background:new 194 47 1000 700;" xml:space="preserve">
<style type="text/css">
	.st0{fill:#FC60A8;}
	.st1{fill:#494368;}
	.st2{fill:#333333;}
	.st3{fill:#2A71D0;}
</style>
<path class="st0" d="M1004.4,291l-150-137.6l-21.1,23l125,114.6H465.6l125-114.7l-21.1-23L419.5,291h-0.1v90.7
	c0,41,39.5,74.4,88,74.4h92.5c48.5,0,88-33.4,88-74.4v-59.6h48v59.6c0,41,39.5,74.4,88,74.4h92.5c48.5,0,88-33.4,88-74.4V291z"/>
<g>
	<path class="st1" d="M557.8,521.2c2.2,1.8,3.4,4.3,3.8,7.6c0.3,3.4-0.4,6.6-2.1,9.7c-7.5,12.9-15,25.7-22.5,38.6
		c-11.6-8.5-22.7-17.9-33.3-28.2c-2.5-2.4-3.8-5.5-3.9-9.2c-0.1-3.7,1-6.9,3.1-9.5c4.4-5.4,8.8-10.7,13.2-16.1
		c9.6,10.3,19.9,19.6,30.6,28c1.8-3,3.7-5.9,5.5-8.9c0.3-0.5,0.5-1,0.4-1.6c-0.1-0.6-0.2-1-0.7-1.3c-9.8-7.8-19.2-16.4-28-25.8
		c2.2-2.7,4.5-5.4,6.7-8.1C539.3,505.4,548.4,513.7,557.8,521.2C557.8,521.2,557.8,521.2,557.8,521.2z M534.5,561.9
		c2.2-3.6,4.5-7.2,6.7-10.7c-8.6-6.7-16.9-14.1-24.9-22c-2.1,2.7-4.2,5.5-6.3,8.2c-0.4,0.5-0.5,1-0.5,1.6c0,0.6,0.2,1.1,0.6,1.5
		C517.9,548.2,526.1,555.3,534.5,561.9C534.5,561.9,534.5,561.9,534.5,561.9z M629,560.6c2.7,1,5.5,1.9,8.3,2.8
		c-10.2,17.3-21.3,34.1-33.4,50.3c-2.5-1-5-2-7.4-3c-0.7-16-0.7-31.9,0-47.6c-9.8,11.2-20.2,22-31.1,32.2c0-0.1-0.1-0.1-0.1-0.2
		c0,0,0,0.1,0,0.1c-2.3-1.3-4.6-2.7-6.9-4.1c2.5-21,6-41.6,10.6-61.7c2.4,1.7,4.9,3.4,7.4,5c-2.5,13.5-4.6,27.3-6.2,41.2
		c9.7-9.1,18.9-18.7,27.7-28.6c2.8,1.4,5.6,2.8,8.5,4.2c-0.6,14-0.6,28,0,42.2C614.3,582.8,621.9,571.8,629,560.6z M673.5,571.9
		c2.7,0.4,4.7,2,6.4,4.8c1.6,2.8,2.3,6.1,2,9.6c-0.7,7.2-1.4,14.5-2.1,21.7c-13.3-1.6-26.6-4.1-39.7-7.6c-0.8,3.5-1.6,7-2.3,10.5
		c-0.1,0.6-0.1,1.1,0.2,1.7c0.3,0.6,0.6,0.8,1.2,1c13,3.4,26.1,5.9,39.4,7.4c-0.4,3.6-0.7,7.3-1.1,10.9c-13.7-1.6-27.2-4.2-40.6-7.6
		c-3.2-0.8-5.5-2.8-7.1-6c-1.6-3.1-1.9-6.5-1-10c2.6-10.5,5.3-21,7.9-31.5c0.9-3.6,2.6-6.2,5.1-8.2c2.5-2,5-2.6,7.6-1.9
		C657.2,568.9,665.3,570.6,673.5,571.9C673.5,571.9,673.5,571.9,673.5,571.9z M642.4,589.8c9.8,2.6,19.7,4.7,29.7,6.2
		c0.4-3.6,0.9-7.1,1.3-10.7c0.1-0.6,0-1.1-0.3-1.6c-0.3-0.5-0.6-0.7-1.1-0.8c-8.5-1.3-16.9-3.1-25.2-5.2c-0.5-0.1-0.9,0-1.3,0.3
		c-0.4,0.4-0.7,0.8-0.8,1.4C644,582.7,643.2,586.2,642.4,589.8L642.4,589.8z M735.5,587.2c0.1,0.7,0.1,1.5,0.2,2.2
		c-2.8,0.3-5.7,0.5-8.5,0.6c0-0.7-0.1-1.5-0.1-2.2c0-0.6-0.2-1.1-0.6-1.5c-0.4-0.4-0.7-0.6-1.2-0.6c-8.5,0.4-17.1,0.4-25.6,0
		c-0.5,0-0.9,0.1-1.2,0.6c-0.4,0.4-0.5,0.9-0.6,1.5c-0.1,2.9-0.3,5.7-0.4,8.6c0,0.6,0.1,1.1,0.4,1.6c0.3,0.5,0.7,0.7,1.2,0.7
		c8.9,0.4,17.8,0.4,26.7,0c2.9-0.1,5.4,1,7.6,3.4c2.2,2.4,3.5,5.5,3.8,9.1c0.2,2.9,0.4,5.7,0.6,8.6c0.3,3.7-0.6,6.8-2.7,9.6
		c-2.1,2.8-4.8,4.2-7.9,4.4c-9.9,0.5-19.7,0.5-29.6,0c-3.3-0.2-5.9-1.6-8-4.4c-2.1-2.8-2.9-6-2.7-9.6c0.1-0.7,0.1-1.5,0.2-2.2
		c3.1,0.3,6.2,0.5,9.2,0.7c0,0.7-0.1,1.5-0.1,2.2c0,0.6,0.1,1.1,0.5,1.6c0.4,0.5,0.8,0.7,1.3,0.7c9.6,0.5,19.1,0.5,28.7,0
		c0.6,0,0.9-0.2,1.3-0.7c0.4-0.5,0.5-1,0.5-1.6c-0.1-2.9-0.3-5.7-0.4-8.6c0-0.6-0.2-1.1-0.6-1.5c-0.4-0.4-0.8-0.6-1.3-0.6
		c-9.2,0.5-18.4,0.5-27.6,0c-3-0.1-5.5-1.6-7.4-4.4c-1.9-2.7-2.7-6-2.5-9.6c0.2-2.9,0.4-5.7,0.6-8.6c0.3-3.7,1.5-6.6,3.6-9.1
		c2.1-2.4,4.5-3.6,7.1-3.4c8.2,0.4,16.5,0.4,24.7,0c2.7-0.1,5,1,7.1,3.4C734,580.5,735.3,583.5,735.5,587.2z M751.5,571.8
		c8.2-1.3,16.3-3,24.3-5.1c2.6-0.7,5.1,0,7.6,1.9c2.5,2,4.2,4.7,5.1,8.2c2.6,10.5,5.3,21,7.9,31.5c0.9,3.6,0.6,6.8-1,10
		c-1.6,3.1-4,5.2-7.1,6c-9.6,2.5-19.3,4.5-29.1,6.1c-3.2,0.5-6-0.4-8.6-2.7c-2.5-2.3-3.9-5.3-4.3-8.9c-1.1-10.8-2.1-21.6-3.2-32.5
		c-0.4-3.7,0.3-6.8,1.9-9.6C746.8,573.9,748.9,572.3,751.5,571.8C751.5,571.8,751.5,571.8,751.5,571.8z M778.1,577.5
		c-8.3,2.2-16.7,3.9-25.2,5.3c-0.5,0.1-0.8,0.3-1.1,0.8c-0.3,0.5-0.4,1-0.3,1.6c1.4,10.8,2.7,21.6,4.1,32.3c0.1,0.6,0.3,1.1,0.7,1.5
		c0.4,0.4,0.9,0.5,1.4,0.4c9.5-1.5,18.9-3.5,28.2-5.9c0.5-0.1,0.9-0.4,1.2-1c0.3-0.6,0.3-1,0.2-1.7c-2.4-10.6-4.7-21.1-7.1-31.7
		c-0.1-0.6-0.4-1-0.8-1.4C779,577.5,778.6,577.3,778.1,577.5z M843.8,537.5c2.4-1.5,4.9-1.6,7.8-0.5c2.9,1.1,5.2,3.2,6.9,6.3
		c7.1,13.1,14.3,26.2,21.4,39.3c-2.7,1.9-5.5,3.7-8.3,5.5c-6.8-13.3-13.6-26.7-20.4-40c-0.3-0.6-0.6-0.9-1.1-1.1
		c-0.5-0.2-1-0.1-1.4,0.1c-5.2,3.2-10.5,6.3-15.8,9.1c-0.4,0.2-0.7,0.6-0.8,1.2c-0.1,0.6-0.1,1.1,0.2,1.7
		c5.9,13.9,11.7,27.7,17.6,41.6c-2.9,1.5-5.9,3-8.9,4.4c-5.5-14.1-11-28.1-16.4-42.2c-0.2-0.6-0.5-1-1-1.2c-0.5-0.3-0.9-0.3-1.3-0.1
		c-5.5,2.6-11,4.9-16.6,7.1c-0.5,0.2-0.7,0.5-0.9,1c-0.2,0.6-0.2,1.1,0,1.7c4.5,14.5,9,28.9,13.5,43.4c-3.1,1.2-6.1,2.3-9.2,3.3
		c-5.3-18.8-10.6-37.7-15.9-56.5C810.5,555.6,827.6,547.6,843.8,537.5z M886.7,503.8c2.1-2,4.5-2.8,7.5-2.4c3,0.4,5.6,2,7.8,4.6
		c4.4,5.4,8.8,10.7,13.2,16.1c-10,10.6-20.6,20.3-31.7,29c1.8,3,3.7,5.9,5.5,8.9c0.3,0.5,0.7,0.8,1.3,0.9c0.6,0.1,1,0,1.4-0.3
		c11-8.7,21.5-18.3,31.4-28.9c2.2,2.7,4.5,5.4,6.7,8.1c-10.2,10.9-21,20.8-32.4,29.8c-2.7,2.1-5.6,2.8-8.8,2
		c-3.2-0.8-5.7-2.7-7.4-5.8c-5.3-9.2-10.7-18.3-16-27.5c-1.8-3.1-2.5-6.3-2.1-9.7c0.3-3.4,1.6-5.9,3.8-7.6
		C873.8,515.8,880.3,510,886.7,503.8C886.7,503.8,886.7,503.8,886.7,503.8z M877.9,542.1c8.3-6.5,16.4-13.6,24.1-21.3
		c-2.1-2.7-4.2-5.5-6.3-8.2c-0.4-0.5-0.8-0.7-1.3-0.8c-0.5-0.1-0.9,0-1.3,0.4c-6.6,6.4-13.4,12.4-20.4,18c-0.4,0.3-0.6,0.7-0.7,1.3
		c-0.1,0.6,0.1,1.1,0.4,1.6C874.3,536.1,876.1,539.1,877.9,542.1C877.9,542.1,877.9,542.1,877.9,542.1z"/>
</g>
<g>
	<g>
		<path class="st1" d="M774.5,492.3c-0.2-3.4-3.2-5.9-6.7-5.9H749l0,0l-5.1-13l0,0h11.6c3.4,0,6.5-2.5,6.7-5.9
			c0.2-3.5-2.7-6.5-6.1-6.5h-17l0,0l-21.3-53.7c-0.9-2.3-3.2-3.9-5.8-3.9c-2.5,0-4.8,1.6-5.8,3.9l-20.4,53.6l0,0h-16.7
			c-3.4,0-6.5,2.5-6.7,5.9c-0.2,3.5,2.7,6.5,6.1,6.5h12.2l0,0l-5,12.9l0,0h-18.6c-3.4,0-6.5,2.5-6.7,5.9c-0.2,3.5,2.7,6.5,6.1,6.5
			h14.3l0,0l-16.7,43.3c-1.2,3.2,0.4,6.8,3.5,8.1c0.7,0.4,1.4,0.4,2.1,0.4c2.5,0,4.8-1.4,5.8-3.9l18.4-47.7l0,0h56.1l0,0l19.2,48.3
			c0.9,2.5,3.2,3.9,5.8,3.9c0.7,0,1.6-0.2,2.3-0.4c3.2-1.2,4.6-4.8,3.4-8.1l-17.4-43.6l0,0h14.1
			C771.8,498.7,774.7,495.8,774.5,492.3z M712.2,426.8l13.4,34l0,0h-26.4l0,0L712.2,426.8C712.1,426.8,712.2,426.8,712.2,426.8z
			 M689.2,486.3l5-13l0,0h36.1l0,0l5.1,13l0,0H689.2L689.2,486.3z"/>
	</g>
	<g>
		<path class="st2" d="M774.5,492.3c-0.2-3.4-3.2-5.9-6.7-5.9H749l0,0l-5.1-13l0,0h11.6c3.4,0,6.5-2.5,6.7-5.9
			c0.2-3.5-2.7-6.5-6.1-6.5h-17l0,0l-21.3-53.7c-0.9-2.3-3.2-3.9-5.8-3.9c-2.5,0-4.8,1.6-5.8,3.9l-20.4,53.6l0,0h-16.7
			c-3.4,0-6.5,2.5-6.7,5.9c-0.2,3.5,2.7,6.5,6.1,6.5h12.2l0,0l-5,12.9l0,0h-18.6c-3.4,0-6.5,2.5-6.7,5.9c-0.2,3.5,2.7,6.5,6.1,6.5
			h14.3l0,0l-16.7,43.3c-1.2,3.2,0.4,6.8,3.5,8.1c0.7,0.4,1.4,0.4,2.1,0.4c2.5,0,4.8-1.4,5.8-3.9l18.4-47.7l0,0h56.1l0,0l19.2,48.3
			c0.9,2.5,3.2,3.9,5.8,3.9c0.7,0,1.6-0.2,2.3-0.4c3.2-1.2,4.6-4.8,3.4-8.1l-17.4-43.6l0,0h14.1
			C771.8,498.7,774.7,495.8,774.5,492.3z M712.2,426.8l13.4,34l0,0h-26.4l0,0L712.2,426.8C712.1,426.8,712.2,426.8,712.2,426.8z
			 M689.2,486.3l5-13l0,0h36.1l0,0l5.1,13l0,0H689.2L689.2,486.3z"/>
	</g>
</g>
<g>
	<g>
		<path class="st3" d="M543.3,363c-4.2,0-8.2-2.4-10.2-6.2c-2.8-5.5-0.6-12.5,5.1-15.3c1.6-0.8,3.4-1.3,5.1-1.3
			c4.2,0,8.2,2.4,10.2,6.2c2.8,5.5,0.6,12.5-5,15.3C546.8,362.6,545.1,363,543.3,363 M530,386.3c-0.3,0-0.4,0-0.7,0
			c-6.2-0.4-11-5.8-10.6-12c0.3-6.2,5.7-11,12-10.6c6.2,0.3,11,5.7,10.6,12C541,381.4,536.1,386.3,530,386.3 M543.4,409.3
			c-2.3,0-4.4-0.7-6.2-1.8c-2.5-1.7-4.2-4.2-4.8-7.2c-0.6-3,0-5.9,1.6-8.5c2.1-3.3,5.7-5.1,9.5-5.1c2.3,0,4.4,0.7,6.2,1.8
			c2.5,1.7,4.2,4.2,5,7.2c0.6,3,0,5.9-1.6,8.5C550.8,407.4,547.3,409.3,543.4,409.3 M570.2,409.3c-4.2,0-8.2-2.4-10.2-6.2
			c-1.4-2.7-1.6-5.8-0.7-8.6c1-2.8,3-5.2,5.7-6.5c1.6-0.8,3.4-1.3,5.1-1.3c4.2,0,8.2,2.4,10.2,6.2c2.8,5.5,0.6,12.5-5.1,15.3
			C573.7,408.9,571.9,409.3,570.2,409.3 M583.5,386.1c-0.3,0-0.4,0-0.7,0c-6.2-0.3-11-5.7-10.6-12c0.4-6.2,5.7-11,12-10.8
			c3,0.1,5.8,1.6,7.8,3.8c2,2.3,3,5.2,2.8,8.2C594.6,381.4,589.5,386.1,583.5,386.1 M570.1,362.9c-2.3,0-4.4-0.7-6.2-1.8
			c-5.2-3.4-6.7-10.5-3.3-15.7c2.1-3.3,5.7-5.1,9.5-5.1c2.3,0,4.4,0.7,6.2,1.8c5.2,3.4,6.7,10.5,3.3,15.7
			C577.4,361.1,573.9,362.9,570.1,362.9 M532,320.8c1.4,2.8,0.3,6.2-2.5,7.6s-6.2,0.3-7.6-2.5c-1.4-2.8-0.3-6.2,2.5-7.6
			S530.6,318,532,320.8 M497.6,369.3c3.1,0.1,5.5,2.8,5.4,5.9c-0.1,3.1-2.8,5.5-5.9,5.4c-3.1-0.1-5.5-2.8-5.4-5.9
			C491.8,371.5,494.5,369.1,497.6,369.3 M522.3,423.2c1.7-2.5,5.2-3.4,7.8-1.6c2.7,1.7,3.4,5.2,1.7,7.8c-1.7,2.5-5.2,3.4-7.8,1.7
			C521.4,429.3,520.7,425.9,522.3,423.2 M581.5,428.7c-1.4-2.8-0.3-6.2,2.5-7.6s6.2-0.3,7.6,2.5c1.4,2.8,0.3,6.2-2.5,7.6
			S583,431.6,581.5,428.7 M615.9,380.3c-3.1-0.1-5.5-2.8-5.4-5.9c0.1-3.1,2.8-5.5,5.9-5.4c3.1,0.1,5.5,2.8,5.4,5.9
			C621.7,378,619.1,380.4,615.9,380.3 M591.2,326.4c-1.7,2.7-5.2,3.4-7.8,1.7c-2.7-1.7-3.4-5.2-1.7-7.8c1.7-2.7,5.2-3.4,7.8-1.7
			C592.2,320.3,592.9,323.7,591.2,326.4 M519.5,303.4c0.8,1.8,0.1,4-1.6,5c-1.8,0.8-4,0.1-5-1.6c-0.8-1.8-0.1-4,1.6-5
			C516.4,300.9,518.7,301.6,519.5,303.4 M476.3,371.2c2,0.1,3.5,1.8,3.4,3.8c-0.1,2-1.8,3.5-3.8,3.4c-2-0.1-3.5-1.8-3.4-3.8
			C472.7,372.7,474.3,371.2,476.3,371.2 M513.6,442.6c1.1-1.7,3.4-2.1,5.1-1s2.1,3.4,1,5.1c-1.1,1.7-3.4,2.1-5.1,1
			S512.4,444.3,513.6,442.6 M594,446.1c-0.8-1.8-0.1-4,1.6-5c1.8-0.8,4-0.1,5,1.6c0.8,1.8,0.1,4-1.6,5
			C597.1,448.7,594.8,448,594,446.1 M637.2,378.3c-2-0.1-3.5-1.8-3.4-3.8s1.8-3.5,3.8-3.4s3.5,1.8,3.4,3.8
			C640.9,376.8,639.2,378.3,637.2,378.3 M599.9,307c-1.1,1.7-3.4,2.1-5.1,1c-1.7-1.1-2.1-3.4-1-5.1c1.1-1.7,3.4-2.1,5.1-1
			C600.7,303,601.1,305.3,599.9,307 M520.7,346.5c3.1,2,4,6.1,2,9.2c-2,3.1-6.1,4-9.2,2c-3.1-2-4-6.1-2-9.2
			C513.4,345.2,517.7,344.3,520.7,346.5 M514.1,391.8c3.3-1.7,7.4-0.3,8.9,3c1.7,3.3,0.3,7.4-3,8.9c-3.3,1.7-7.4,0.3-8.9-3
			C509.5,397.4,510.9,393.5,514.1,391.8 M549.7,420.2c0.1-3.7,3.4-6.5,7.1-6.2c3.7,0.1,6.5,3.4,6.2,7.1c-0.1,3.7-3.4,6.5-7.1,6.2
			C552.4,427,549.5,423.9,549.7,420.2 M592.9,403.2c-3.1-2-4-6.1-2-9.2s6.1-4,9.2-2c3.1,2,4,6.1,2,9.2
			C600.1,404.4,595.8,405.2,592.9,403.2 M599.4,357.8c-3.3,1.7-7.4,0.3-8.9-3c-1.7-3.3-0.3-7.4,3-8.9c3.3-1.7,7.4-0.3,8.9,3
			C604,352.1,602.6,356.1,599.4,357.8 M563.3,329.3c-0.1,3.7-3.4,6.5-7.1,6.2c-3.7-0.1-6.5-3.4-6.2-7.1c0.1-3.7,3.4-6.5,7.1-6.2
			C560.7,322.5,563.6,325.7,563.3,329.3 M495.9,334.4c2.1,1.4,2.7,4.2,1.3,6.5c-1.4,2.1-4.2,2.8-6.5,1.3c-2.1-1.4-2.7-4.2-1.3-6.5
			C490.8,333.6,493.7,333,495.9,334.4 M491.3,407.4c2.3-1.1,5.1-0.3,6.2,2.1c1.1,2.3,0.3,5.1-2.1,6.2c-2.3,1.1-5.1,0.3-6.2-2.1
			C488.1,411.3,489.1,408.5,491.3,407.4 M551.8,447.7c0.1-2.5,2.4-4.5,5-4.4c2.5,0.1,4.5,2.4,4.4,5s-2.4,4.5-5,4.4
			C553.6,452.5,551.7,450.3,551.8,447.7 M617.6,415.1c-2.1-1.4-2.7-4.2-1.3-6.5c1.4-2.1,4.2-2.8,6.5-1.4c2.1,1.4,2.7,4.2,1.3,6.5
			C622.7,416,619.8,416.6,617.6,415.1 M622.2,342.2c-2.3,1.1-5.1,0.3-6.2-2.1c-1.1-2.3-0.3-5.1,2.1-6.2c2.3-1.1,5.1-0.3,6.2,2.1
			C625.4,338.3,624.4,341.1,622.2,342.2 M561.3,301.9c-0.1,2.5-2.4,4.5-5,4.4c-2.5-0.1-4.5-2.4-4.4-5c0.1-2.5,2.4-4.5,5-4.4
			C559.4,297.1,561.4,299.3,561.3,301.9"/>
	</g>
</g>
<g>
	<g>
		<path class="st3" d="M858.8,363.1c-4.2,0-8.2-2.4-10.2-6.2c-2.8-5.5-0.6-12.5,5.1-15.3c1.6-0.8,3.4-1.3,5.1-1.3
			c4.2,0,8.2,2.4,10.2,6.2c2.8,5.5,0.6,12.5-5,15.3C862.3,362.7,860.6,363.1,858.8,363.1 M845.5,386.3c-0.3,0-0.4,0-0.7,0
			c-6.2-0.4-11-5.8-10.6-12c0.3-6.2,5.7-11,12-10.6c6.2,0.3,11,5.7,10.6,12C856.5,381.5,851.6,386.3,845.5,386.3 M858.9,409.4
			c-2.3,0-4.4-0.7-6.2-1.8c-2.5-1.7-4.2-4.2-4.8-7.2c-0.6-3,0-5.9,1.6-8.5c2.1-3.3,5.7-5.1,9.5-5.1c2.3,0,4.4,0.7,6.2,1.8
			c2.5,1.7,4.2,4.2,5,7.2c0.6,3,0,5.9-1.6,8.5C866.3,407.4,862.8,409.4,858.9,409.4 M885.7,409.4c-4.2,0-8.2-2.4-10.2-6.2
			c-1.4-2.7-1.6-5.8-0.7-8.6c1-2.8,3-5.2,5.7-6.5c1.6-0.8,3.4-1.3,5.1-1.3c4.2,0,8.2,2.4,10.2,6.2c2.8,5.5,0.6,12.5-5.1,15.3
			C889.2,409,887.4,409.4,885.7,409.4 M899,386.2c-0.3,0-0.4,0-0.7,0c-6.2-0.3-11-5.7-10.6-12c0.4-6.2,5.7-11,12-10.8
			c3,0.1,5.8,1.6,7.8,3.8s3,5.2,2.8,8.2C910.1,381.5,905,386.2,899,386.2 M885.6,363c-2.3,0-4.4-0.7-6.2-1.8
			c-5.2-3.4-6.7-10.5-3.3-15.7c2.1-3.3,5.7-5.1,9.5-5.1c2.3,0,4.4,0.7,6.2,1.8c5.2,3.4,6.7,10.5,3.3,15.7
			C892.9,361.1,889.4,363,885.6,363 M847.5,320.9c1.4,2.8,0.3,6.2-2.5,7.6s-6.2,0.3-7.6-2.5c-1.4-2.8-0.3-6.2,2.5-7.6
			C842.7,316.9,846.1,318.1,847.5,320.9 M813.1,369.3c3.1,0.1,5.5,2.8,5.4,5.9c-0.1,3.1-2.8,5.5-5.9,5.4c-3.1-0.1-5.5-2.8-5.4-5.9
			C807.3,371.6,810,369.2,813.1,369.3 M837.8,423.3c1.7-2.5,5.2-3.4,7.8-1.6c2.7,1.7,3.4,5.2,1.7,7.8s-5.2,3.4-7.8,1.7
			C836.9,429.4,836.2,426,837.8,423.3 M897,428.8c-1.4-2.8-0.3-6.2,2.5-7.6s6.2-0.3,7.6,2.5c1.4,2.8,0.3,6.2-2.5,7.6
			S898.5,431.6,897,428.8 M931.4,380.4c-3.1-0.1-5.5-2.8-5.4-5.9c0.1-3.1,2.8-5.5,5.9-5.4s5.5,2.8,5.4,5.9
			C937.2,378.1,934.6,380.5,931.4,380.4 M906.7,326.4c-1.7,2.7-5.2,3.4-7.8,1.7c-2.7-1.7-3.4-5.2-1.7-7.8c1.7-2.7,5.2-3.4,7.8-1.7
			C907.7,320.3,908.4,323.7,906.7,326.4 M835,303.5c0.8,1.8,0.1,4-1.6,5c-1.8,0.8-4,0.1-5-1.6c-0.8-1.8-0.1-4,1.6-5
			C831.9,300.9,834.2,301.7,835,303.5 M791.8,371.3c2,0.1,3.5,1.8,3.4,3.8s-1.8,3.5-3.8,3.4s-3.5-1.8-3.4-3.8
			C788.2,372.7,789.8,371.3,791.8,371.3 M829.1,442.7c1.1-1.7,3.4-2.1,5.1-1c1.7,1.1,2.1,3.4,1,5.1c-1.1,1.7-3.4,2.1-5.1,1
			C828.4,446.6,827.9,444.4,829.1,442.7 M909.5,446.2c-0.8-1.8-0.1-4,1.6-5c1.8-0.8,4-0.1,5,1.6c0.8,1.8,0.1,4-1.6,5
			C912.6,448.8,910.3,448.1,909.5,446.2 M952.7,378.4c-2-0.1-3.5-1.8-3.4-3.8s1.8-3.5,3.8-3.4c2,0.1,3.5,1.8,3.4,3.8
			C956.4,376.8,954.7,378.4,952.7,378.4 M915.4,307c-1.1,1.7-3.4,2.1-5.1,1c-1.7-1.1-2.1-3.4-1-5.1s3.4-2.1,5.1-1
			S916.6,305.3,915.4,307 M836.2,346.5c3.1,2,4,6.1,2,9.2c-2,3.1-6.1,4-9.2,2c-3.1-2-4-6.1-2-9.2
			C828.9,345.3,833.2,344.4,836.2,346.5 M829.6,391.9c3.3-1.7,7.4-0.3,8.9,3c1.7,3.3,0.3,7.4-3,8.9c-3.3,1.7-7.4,0.3-8.9-3
			C825,397.5,826.4,393.6,829.6,391.9 M865.2,420.3c0.1-3.7,3.4-6.5,7.1-6.2c3.7,0.1,6.5,3.4,6.2,7.1c-0.1,3.7-3.4,6.5-7.1,6.2
			C867.9,427.1,865,424,865.2,420.3 M908.4,403.3c-3.1-2-4-6.1-2-9.2c2-3.1,6.1-4,9.2-2c3.1,2,4,6.1,2,9.2
			C915.6,404.5,911.3,405.3,908.4,403.3 M914.9,357.9c-3.3,1.7-7.4,0.3-8.9-3c-1.7-3.3-0.3-7.4,3-8.9c3.3-1.7,7.4-0.3,8.9,3
			C919.5,352.2,918.1,356.2,914.9,357.9 M878.8,329.4c-0.1,3.7-3.4,6.5-7.1,6.2c-3.7-0.1-6.5-3.4-6.2-7.1c0.1-3.7,3.4-6.5,7.1-6.2
			C876.2,322.6,879.1,325.7,878.8,329.4 M811.4,334.5c2.1,1.4,2.7,4.2,1.3,6.5c-1.4,2.1-4.2,2.8-6.5,1.3c-2.1-1.4-2.7-4.2-1.3-6.5
			C806.3,333.7,809.2,333.1,811.4,334.5 M806.8,407.4c2.3-1.1,5.1-0.3,6.2,2.1c1.1,2.3,0.3,5.1-2.1,6.2c-2.3,1.1-5.1,0.3-6.2-2.1
			C803.6,411.4,804.6,408.6,806.8,407.4 M867.3,447.8c0.1-2.5,2.4-4.5,5-4.4c2.5,0.1,4.5,2.4,4.4,5c-0.1,2.5-2.4,4.5-5,4.4
			C869.1,452.6,867.2,450.3,867.3,447.8 M933.1,415.2c-2.1-1.4-2.7-4.2-1.3-6.5c1.4-2.1,4.2-2.8,6.5-1.4c2.1,1.4,2.7,4.2,1.3,6.5
			C938.2,416.1,935.3,416.6,933.1,415.2 M937.7,342.3c-2.3,1.1-5.1,0.3-6.2-2.1c-1.1-2.3-0.3-5.1,2.1-6.2c2.3-1.1,5.1-0.3,6.2,2.1
			C940.9,338.3,939.9,341.2,937.7,342.3 M876.8,301.9c-0.1,2.5-2.4,4.5-5,4.4c-2.5-0.1-4.5-2.4-4.4-5c0.1-2.5,2.4-4.5,5-4.4
			C874.9,297.1,876.9,299.4,876.8,301.9"/>
	</g>
</g>
</svg>
