<?xml version="1.0" encoding="utf-8"?>
<!-- Generator: Adobe Illustrator 19.0.0, SVG Export Plug-In . SVG Version: 6.00 Build 0)  -->
<svg version="1.1" id="Layer_1" xmlns="http://www.w3.org/2000/svg" xmlns:xlink="http://www.w3.org/1999/xlink" x="0px" y="0px"
	 viewBox="194 47 1000 700" style="enable-background:new 194 47 1000 700;" xml:space="preserve">
<style type="text/css">
	.st0{fill:#FC60A8;}
	.st1{fill:#494368;}
	.st2{fill:#333333;}
	.st3{fill:#2A71D0;}
</style>
<path class="st0" d="M924.1,353.1l-150-137.6l-21.1,23l125,114.6H385.3l125-114.7l-21.1-23l-150,137.7h-0.1v90.7
	c0,41,39.5,74.4,88,74.4h92.5c48.5,0,88-33.4,88-74.4v-59.6h48v59.6c0,41,39.5,74.4,88,74.4h92.5c48.5,0,88-33.4,88-74.4V353.1z"/>
<g>
	<g>
		<path d="M636.3,76C636.3,76,636.3,76,636.3,76l0-16.7c0-4.6-1.9-8.3-4.2-8.3c-2.3,0-4.2,3.7-4.2,8.3V76c0,0,0,0,0,0
			c-89.9,1.8-180.6,64.4-183.1,153.6h1.7c0,0,17.5-28.8,60.7-28.8c43.2,0,60.7,28.8,60.7,28.8s10.4-26.5,58-28.7v0
			c2.9-0.5,5.8-1.1,8.8-1.1c2.9,0,5.4,0.7,7.8,1.7v-0.4c43.8,3.5,53.6,28.4,53.6,28.4s17.5-28.8,60.7-28.8
			c43.2,0,60.7,28.8,60.7,28.8h1.7C816.8,140.4,726.2,77.9,636.3,76z"/>
	</g>
</g>
<g>
	<path class="st1" d="M477.5,583.3c2.2,1.8,3.4,4.3,3.8,7.6c0.3,3.4-0.4,6.6-2.1,9.7c-7.5,12.9-15,25.7-22.5,38.6
		c-11.6-8.5-22.7-17.9-33.3-28.2c-2.5-2.4-3.8-5.5-3.9-9.2c-0.1-3.7,1-6.9,3.1-9.5c4.4-5.4,8.8-10.7,13.2-16.1
		c9.6,10.3,19.9,19.6,30.6,28c1.8-3,3.7-5.9,5.5-8.9c0.3-0.5,0.5-1,0.4-1.6s-0.2-1-0.7-1.3c-9.8-7.8-19.2-16.4-28-25.8
		c2.2-2.7,4.5-5.4,6.7-8.1C459,567.5,468.1,575.8,477.5,583.3L477.5,583.3z M454.2,624c2.2-3.6,4.5-7.2,6.7-10.7
		c-8.6-6.7-16.9-14.1-24.9-22c-2.1,2.7-4.2,5.5-6.3,8.2c-0.4,0.5-0.5,1-0.5,1.6s0.2,1.1,0.6,1.5C437.6,610.3,445.8,617.4,454.2,624
		L454.2,624z M548.7,622.7c2.7,1,5.5,1.9,8.3,2.8c-10.2,17.3-21.3,34.1-33.4,50.3c-2.5-1-5-2-7.4-3c-0.7-16-0.7-31.9,0-47.6
		c-9.8,11.2-20.2,22-31.1,32.2c0-0.1-0.1-0.1-0.1-0.2v0.1c-2.3-1.3-4.6-2.7-6.9-4.1c2.5-21,6-41.6,10.6-61.7c2.4,1.7,4.9,3.4,7.4,5
		c-2.5,13.5-4.6,27.3-6.2,41.2c9.7-9.1,18.9-18.7,27.7-28.6c2.8,1.4,5.6,2.8,8.5,4.2c-0.6,14-0.6,28,0,42.2
		C534,644.9,541.6,633.9,548.7,622.7z M593.2,634c2.7,0.4,4.7,2,6.4,4.8c1.6,2.8,2.3,6.1,2,9.6c-0.7,7.2-1.4,14.5-2.1,21.7
		c-13.3-1.6-26.6-4.1-39.7-7.6c-0.8,3.5-1.6,7-2.3,10.5c-0.1,0.6-0.1,1.1,0.2,1.7s0.6,0.8,1.2,1c13,3.4,26.1,5.9,39.4,7.4
		c-0.4,3.6-0.7,7.3-1.1,10.9c-13.7-1.6-27.2-4.2-40.6-7.6c-3.2-0.8-5.5-2.8-7.1-6c-1.6-3.1-1.9-6.5-1-10c2.6-10.5,5.3-21,7.9-31.5
		c0.9-3.6,2.6-6.2,5.1-8.2s5-2.6,7.6-1.9C576.9,631,585,632.7,593.2,634L593.2,634z M562.1,651.9c9.8,2.6,19.7,4.7,29.7,6.2
		c0.4-3.6,0.9-7.1,1.3-10.7c0.1-0.6,0-1.1-0.3-1.6s-0.6-0.7-1.1-0.8c-8.5-1.3-16.9-3.1-25.2-5.2c-0.5-0.1-0.9,0-1.3,0.3
		c-0.4,0.4-0.7,0.8-0.8,1.4C563.7,644.8,562.9,648.3,562.1,651.9L562.1,651.9z M655.2,649.3c0.1,0.7,0.1,1.5,0.2,2.2
		c-2.8,0.3-5.7,0.5-8.5,0.6c0-0.7-0.1-1.5-0.1-2.2c0-0.6-0.2-1.1-0.6-1.5c-0.4-0.4-0.7-0.6-1.2-0.6c-8.5,0.4-17.1,0.4-25.6,0
		c-0.5,0-0.9,0.1-1.2,0.6c-0.4,0.4-0.5,0.9-0.6,1.5c-0.1,2.9-0.3,5.7-0.4,8.6c0,0.6,0.1,1.1,0.4,1.6c0.3,0.5,0.7,0.7,1.2,0.7
		c8.9,0.4,17.8,0.4,26.7,0c2.9-0.1,5.4,1,7.6,3.4c2.2,2.4,3.5,5.5,3.8,9.1c0.2,2.9,0.4,5.7,0.6,8.6c0.3,3.7-0.6,6.8-2.7,9.6
		c-2.1,2.8-4.8,4.2-7.9,4.4c-9.9,0.5-19.7,0.5-29.6,0c-3.3-0.2-5.9-1.6-8-4.4s-2.9-6-2.7-9.6c0.1-0.7,0.1-1.5,0.2-2.2
		c3.1,0.3,6.2,0.5,9.2,0.7c0,0.7-0.1,1.5-0.1,2.2c0,0.6,0.1,1.1,0.5,1.6s0.8,0.7,1.3,0.7c9.6,0.5,19.1,0.5,28.7,0
		c0.6,0,0.9-0.2,1.3-0.7c0.4-0.5,0.5-1,0.5-1.6c-0.1-2.9-0.3-5.7-0.4-8.6c0-0.6-0.2-1.1-0.6-1.5c-0.4-0.4-0.8-0.6-1.3-0.6
		c-9.2,0.5-18.4,0.5-27.6,0c-3-0.1-5.5-1.6-7.4-4.4c-1.9-2.7-2.7-6-2.5-9.6c0.2-2.9,0.4-5.7,0.6-8.6c0.3-3.7,1.5-6.6,3.6-9.1
		c2.1-2.4,4.5-3.6,7.1-3.4c8.2,0.4,16.5,0.4,24.7,0c2.7-0.1,5,1,7.1,3.4C653.7,642.6,655,645.6,655.2,649.3z M671.2,633.9
		c8.2-1.3,16.3-3,24.3-5.1c2.6-0.7,5.1,0,7.6,1.9c2.5,2,4.2,4.7,5.1,8.2c2.6,10.5,5.3,21,7.9,31.5c0.9,3.6,0.6,6.8-1,10
		c-1.6,3.1-4,5.2-7.1,6c-9.6,2.5-19.3,4.5-29.1,6.1c-3.2,0.5-6-0.4-8.6-2.7c-2.5-2.3-3.9-5.3-4.3-8.9c-1.1-10.8-2.1-21.6-3.2-32.5
		c-0.4-3.7,0.3-6.8,1.9-9.6C666.5,636,668.6,634.4,671.2,633.9L671.2,633.9z M697.8,639.6c-8.3,2.2-16.7,3.9-25.2,5.3
		c-0.5,0.1-0.8,0.3-1.1,0.8s-0.4,1-0.3,1.6c1.4,10.8,2.7,21.6,4.1,32.3c0.1,0.6,0.3,1.1,0.7,1.5s0.9,0.5,1.4,0.4
		c9.5-1.5,18.9-3.5,28.2-5.9c0.5-0.1,0.9-0.4,1.2-1s0.3-1,0.2-1.7c-2.4-10.6-4.7-21.1-7.1-31.7c-0.1-0.6-0.4-1-0.8-1.4
		C698.7,639.6,698.3,639.4,697.8,639.6z M763.5,599.6c2.4-1.5,4.9-1.6,7.8-0.5c2.9,1.1,5.2,3.2,6.9,6.3
		c7.1,13.1,14.3,26.2,21.4,39.3c-2.7,1.9-5.5,3.7-8.3,5.5c-6.8-13.3-13.6-26.7-20.4-40c-0.3-0.6-0.6-0.9-1.1-1.1
		c-0.5-0.2-1-0.1-1.4,0.1c-5.2,3.2-10.5,6.3-15.8,9.1c-0.4,0.2-0.7,0.6-0.8,1.2s-0.1,1.1,0.2,1.7c5.9,13.9,11.7,27.7,17.6,41.6
		c-2.9,1.5-5.9,3-8.9,4.4c-5.5-14.1-11-28.1-16.4-42.2c-0.2-0.6-0.5-1-1-1.2c-0.5-0.3-0.9-0.3-1.3-0.1c-5.5,2.6-11,4.9-16.6,7.1
		c-0.5,0.2-0.7,0.5-0.9,1c-0.2,0.6-0.2,1.1,0,1.7c4.5,14.5,9,28.9,13.5,43.4c-3.1,1.2-6.1,2.3-9.2,3.3
		c-5.3-18.8-10.6-37.7-15.9-56.5C730.2,617.7,747.3,609.7,763.5,599.6z M806.4,565.9c2.1-2,4.5-2.8,7.5-2.4s5.6,2,7.8,4.6
		c4.4,5.4,8.8,10.7,13.2,16.1c-10,10.6-20.6,20.3-31.7,29c1.8,3,3.7,5.9,5.5,8.9c0.3,0.5,0.7,0.8,1.3,0.9c0.6,0.1,1,0,1.4-0.3
		c11-8.7,21.5-18.3,31.4-28.9c2.2,2.7,4.5,5.4,6.7,8.1c-10.2,10.9-21,20.8-32.4,29.8c-2.7,2.1-5.6,2.8-8.8,2
		c-3.2-0.8-5.7-2.7-7.4-5.8c-5.3-9.2-10.7-18.3-16-27.5c-1.8-3.1-2.5-6.3-2.1-9.7c0.3-3.4,1.6-5.9,3.8-7.6
		C793.5,577.9,800,572.1,806.4,565.9L806.4,565.9z M797.6,604.2c8.3-6.5,16.4-13.6,24.1-21.3c-2.1-2.7-4.2-5.5-6.3-8.2
		c-0.4-0.5-0.8-0.7-1.3-0.8s-0.9,0-1.3,0.4c-6.6,6.4-13.4,12.4-20.4,18c-0.4,0.3-0.6,0.7-0.7,1.3c-0.1,0.6,0.1,1.1,0.4,1.6
		C794,598.2,795.8,601.2,797.6,604.2L797.6,604.2z"/>
</g>
<g>
	<g>
		<path class="st1" d="M694.2,554.4c-0.2-3.4-3.2-5.9-6.7-5.9h-18.8l0,0l-5.1-13l0,0h11.6c3.4,0,6.5-2.5,6.7-5.9
			c0.2-3.5-2.7-6.5-6.1-6.5h-17l0,0l-21.3-53.7c-0.9-2.3-3.2-3.9-5.8-3.9c-2.5,0-4.8,1.6-5.8,3.9L605.5,523l0,0h-16.7
			c-3.4,0-6.5,2.5-6.7,5.9c-0.2,3.5,2.7,6.5,6.1,6.5h12.2l0,0l-5,12.9l0,0h-18.6c-3.4,0-6.5,2.5-6.7,5.9c-0.2,3.5,2.7,6.5,6.1,6.5
			h14.3l0,0L573.8,604c-1.2,3.2,0.4,6.8,3.5,8.1c0.7,0.4,1.4,0.4,2.1,0.4c2.5,0,4.8-1.4,5.8-3.9l18.4-47.7l0,0h56.1l0,0l19.2,48.3
			c0.9,2.5,3.2,3.9,5.8,3.9c0.7,0,1.6-0.2,2.3-0.4c3.2-1.2,4.6-4.8,3.4-8.1L673,561l0,0h14.1C691.5,560.8,694.4,557.9,694.2,554.4z
			 M631.9,488.9l13.4,34l0,0h-26.4l0,0L631.9,488.9C631.8,488.9,631.9,488.9,631.9,488.9z M608.9,548.4l5-13l0,0H650l0,0l5.1,13l0,0
			H608.9L608.9,548.4z"/>
	</g>
	<g>
		<path class="st2" d="M694.2,554.4c-0.2-3.4-3.2-5.9-6.7-5.9h-18.8l0,0l-5.1-13l0,0h11.6c3.4,0,6.5-2.5,6.7-5.9
			c0.2-3.5-2.7-6.5-6.1-6.5h-17l0,0l-21.3-53.7c-0.9-2.3-3.2-3.9-5.8-3.9c-2.5,0-4.8,1.6-5.8,3.9L605.5,523l0,0h-16.7
			c-3.4,0-6.5,2.5-6.7,5.9c-0.2,3.5,2.7,6.5,6.1,6.5h12.2l0,0l-5,12.9l0,0h-18.6c-3.4,0-6.5,2.5-6.7,5.9c-0.2,3.5,2.7,6.5,6.1,6.5
			h14.3l0,0L573.8,604c-1.2,3.2,0.4,6.8,3.5,8.1c0.7,0.4,1.4,0.4,2.1,0.4c2.5,0,4.8-1.4,5.8-3.9l18.4-47.7l0,0h56.1l0,0l19.2,48.3
			c0.9,2.5,3.2,3.9,5.8,3.9c0.7,0,1.6-0.2,2.3-0.4c3.2-1.2,4.6-4.8,3.4-8.1L673,561l0,0h14.1C691.5,560.8,694.4,557.9,694.2,554.4z
			 M631.9,488.9l13.4,34l0,0h-26.4l0,0L631.9,488.9C631.8,488.9,631.9,488.9,631.9,488.9z M608.9,548.4l5-13l0,0H650l0,0l5.1,13l0,0
			H608.9L608.9,548.4z"/>
	</g>
</g>
<g>
	<g>
		<path class="st3" d="M463,425.1c-4.2,0-8.2-2.4-10.2-6.2c-2.8-5.5-0.6-12.5,5.1-15.3c1.6-0.8,3.4-1.3,5.1-1.3
			c4.2,0,8.2,2.4,10.2,6.2c2.8,5.5,0.6,12.5-5,15.3C466.5,424.7,464.8,425.1,463,425.1 M449.7,448.4c-0.3,0-0.4,0-0.7,0
			c-6.2-0.4-11-5.8-10.6-12c0.3-6.2,5.7-11,12-10.6c6.2,0.3,11,5.7,10.6,12C460.7,443.5,455.8,448.4,449.7,448.4 M463.1,471.4
			c-2.3,0-4.4-0.7-6.2-1.8c-2.5-1.7-4.2-4.2-4.8-7.2s0-5.9,1.6-8.5c2.1-3.3,5.7-5.1,9.5-5.1c2.3,0,4.4,0.7,6.2,1.8
			c2.5,1.7,4.2,4.2,5,7.2c0.6,3,0,5.9-1.6,8.5C470.5,469.5,467,471.4,463.1,471.4 M489.9,471.4c-4.2,0-8.2-2.4-10.2-6.2
			c-1.4-2.7-1.6-5.8-0.7-8.6c1-2.8,3-5.2,5.7-6.5c1.6-0.8,3.4-1.3,5.1-1.3c4.2,0,8.2,2.4,10.2,6.2c2.8,5.5,0.6,12.5-5.1,15.3
			C493.4,471,491.6,471.4,489.9,471.4 M503.2,448.2c-0.3,0-0.4,0-0.7,0c-6.2-0.3-11-5.7-10.6-12c0.4-6.2,5.7-11,12-10.8
			c3,0.1,5.8,1.6,7.8,3.8c2,2.3,3,5.2,2.8,8.2C514.3,443.5,509.2,448.2,503.2,448.2 M489.8,425c-2.3,0-4.4-0.7-6.2-1.8
			c-5.2-3.4-6.7-10.5-3.3-15.7c2.1-3.3,5.7-5.1,9.5-5.1c2.3,0,4.4,0.7,6.2,1.8c5.2,3.4,6.7,10.5,3.3,15.7
			C497.1,423.2,493.6,425,489.8,425 M451.7,382.9c1.4,2.8,0.3,6.2-2.5,7.6s-6.2,0.3-7.6-2.5c-1.4-2.8-0.3-6.2,2.5-7.6
			S450.3,380.1,451.7,382.9 M417.3,431.4c3.1,0.1,5.5,2.8,5.4,5.9s-2.8,5.5-5.9,5.4s-5.5-2.8-5.4-5.9
			C411.5,433.6,414.2,431.2,417.3,431.4 M442,485.3c1.7-2.5,5.2-3.4,7.8-1.6c2.7,1.7,3.4,5.2,1.7,7.8c-1.7,2.5-5.2,3.4-7.8,1.7
			C441.1,491.4,440.4,488,442,485.3 M501.2,490.8c-1.4-2.8-0.3-6.2,2.5-7.6s6.2-0.3,7.6,2.5c1.4,2.8,0.3,6.2-2.5,7.6
			S502.7,493.7,501.2,490.8 M535.6,442.4c-3.1-0.1-5.5-2.8-5.4-5.9s2.8-5.5,5.9-5.4c3.1,0.1,5.5,2.8,5.4,5.9
			C541.4,440.1,538.8,442.5,535.6,442.4 M510.9,388.5c-1.7,2.7-5.2,3.4-7.8,1.7c-2.7-1.7-3.4-5.2-1.7-7.8c1.7-2.7,5.2-3.4,7.8-1.7
			C511.9,382.4,512.6,385.8,510.9,388.5 M439.2,365.5c0.8,1.8,0.1,4-1.6,5c-1.8,0.8-4,0.1-5-1.6c-0.8-1.8-0.1-4,1.6-5
			C436.1,363,438.4,363.7,439.2,365.5 M396,433.3c2,0.1,3.5,1.8,3.4,3.8s-1.8,3.5-3.8,3.4s-3.5-1.8-3.4-3.8
			C392.4,434.8,394,433.3,396,433.3 M433.3,504.7c1.1-1.7,3.4-2.1,5.1-1s2.1,3.4,1,5.1s-3.4,2.1-5.1,1S432.1,506.4,433.3,504.7
			 M513.7,508.2c-0.8-1.8-0.1-4,1.6-5c1.8-0.8,4-0.1,5,1.6c0.8,1.8,0.1,4-1.6,5C516.8,510.8,514.5,510.1,513.7,508.2 M556.9,440.4
			c-2-0.1-3.5-1.8-3.4-3.8s1.8-3.5,3.8-3.4s3.5,1.8,3.4,3.8C560.6,438.9,558.9,440.4,556.9,440.4 M519.6,369.1
			c-1.1,1.7-3.4,2.1-5.1,1c-1.7-1.1-2.1-3.4-1-5.1s3.4-2.1,5.1-1C520.4,365.1,520.8,367.4,519.6,369.1 M440.4,408.6
			c3.1,2,4,6.1,2,9.2s-6.1,4-9.2,2c-3.1-2-4-6.1-2-9.2C433.1,407.3,437.4,406.4,440.4,408.6 M433.8,453.9c3.3-1.7,7.4-0.3,8.9,3
			c1.7,3.3,0.3,7.4-3,8.9c-3.3,1.7-7.4,0.3-8.9-3C429.2,459.5,430.6,455.6,433.8,453.9 M469.4,482.3c0.1-3.7,3.4-6.5,7.1-6.2
			c3.7,0.1,6.5,3.4,6.2,7.1c-0.1,3.7-3.4,6.5-7.1,6.2C472.1,489.1,469.2,486,469.4,482.3 M512.6,465.3c-3.1-2-4-6.1-2-9.2
			s6.1-4,9.2-2c3.1,2,4,6.1,2,9.2C519.8,466.5,515.5,467.3,512.6,465.3 M519.1,419.9c-3.3,1.7-7.4,0.3-8.9-3c-1.7-3.3-0.3-7.4,3-8.9
			c3.3-1.7,7.4-0.3,8.9,3C523.7,414.2,522.3,418.2,519.1,419.9 M483,391.4c-0.1,3.7-3.4,6.5-7.1,6.2c-3.7-0.1-6.5-3.4-6.2-7.1
			c0.1-3.7,3.4-6.5,7.1-6.2C480.4,384.6,483.3,387.8,483,391.4 M415.6,396.5c2.1,1.4,2.7,4.2,1.3,6.5c-1.4,2.1-4.2,2.8-6.5,1.3
			c-2.1-1.4-2.7-4.2-1.3-6.5C410.5,395.7,413.4,395.1,415.6,396.5 M411,469.5c2.3-1.1,5.1-0.3,6.2,2.1c1.1,2.3,0.3,5.1-2.1,6.2
			c-2.3,1.1-5.1,0.3-6.2-2.1C407.8,473.4,408.8,470.6,411,469.5 M471.5,509.8c0.1-2.5,2.4-4.5,5-4.4c2.5,0.1,4.5,2.4,4.4,5
			c-0.1,2.6-2.4,4.5-5,4.4C473.3,514.6,471.4,512.4,471.5,509.8 M537.3,477.2c-2.1-1.4-2.7-4.2-1.3-6.5c1.4-2.1,4.2-2.8,6.5-1.4
			c2.1,1.4,2.7,4.2,1.3,6.5C542.4,478.1,539.5,478.7,537.3,477.2 M541.9,404.3c-2.3,1.1-5.1,0.3-6.2-2.1c-1.1-2.3-0.3-5.1,2.1-6.2
			c2.3-1.1,5.1-0.3,6.2,2.1C545.1,400.4,544.1,403.2,541.9,404.3 M481,364c-0.1,2.5-2.4,4.5-5,4.4c-2.5-0.1-4.5-2.4-4.4-5
			c0.1-2.5,2.4-4.5,5-4.4C479.1,359.2,481.1,361.4,481,364"/>
	</g>
</g>
<g>
	<g>
		<path class="st3" d="M778.5,425.2c-4.2,0-8.2-2.4-10.2-6.2c-2.8-5.5-0.6-12.5,5.1-15.3c1.6-0.8,3.4-1.3,5.1-1.3
			c4.2,0,8.2,2.4,10.2,6.2c2.8,5.5,0.6,12.5-5,15.3C782,424.8,780.3,425.2,778.5,425.2 M765.2,448.4c-0.3,0-0.4,0-0.7,0
			c-6.2-0.4-11-5.8-10.6-12c0.3-6.2,5.7-11,12-10.6c6.2,0.3,11,5.7,10.6,12C776.2,443.6,771.3,448.4,765.2,448.4 M778.6,471.5
			c-2.3,0-4.4-0.7-6.2-1.8c-2.5-1.7-4.2-4.2-4.8-7.2s0-5.9,1.6-8.5c2.1-3.3,5.7-5.1,9.5-5.1c2.3,0,4.4,0.7,6.2,1.8
			c2.5,1.7,4.2,4.2,5,7.2c0.6,3,0,5.9-1.6,8.5C786,469.5,782.5,471.5,778.6,471.5 M805.4,471.5c-4.2,0-8.2-2.4-10.2-6.2
			c-1.4-2.7-1.6-5.8-0.7-8.6c1-2.8,3-5.2,5.7-6.5c1.6-0.8,3.4-1.3,5.1-1.3c4.2,0,8.2,2.4,10.2,6.2c2.8,5.5,0.6,12.5-5.1,15.3
			C808.9,471.1,807.1,471.5,805.4,471.5 M818.7,448.3c-0.3,0-0.4,0-0.7,0c-6.2-0.3-11-5.7-10.6-12c0.4-6.2,5.7-11,12-10.8
			c3,0.1,5.8,1.6,7.8,3.8s3,5.2,2.8,8.2C829.8,443.6,824.7,448.3,818.7,448.3 M805.3,425.1c-2.3,0-4.4-0.7-6.2-1.8
			c-5.2-3.4-6.7-10.5-3.3-15.7c2.1-3.3,5.7-5.1,9.5-5.1c2.3,0,4.4,0.7,6.2,1.8c5.2,3.4,6.7,10.5,3.3,15.7
			C812.6,423.2,809.1,425.1,805.3,425.1 M767.2,383c1.4,2.8,0.3,6.2-2.5,7.6s-6.2,0.3-7.6-2.5c-1.4-2.8-0.3-6.2,2.5-7.6
			C762.4,379,765.8,380.2,767.2,383 M732.8,431.4c3.1,0.1,5.5,2.8,5.4,5.9s-2.8,5.5-5.9,5.4c-3.1-0.1-5.5-2.8-5.4-5.9
			C727,433.7,729.7,431.3,732.8,431.4 M757.5,485.4c1.7-2.5,5.2-3.4,7.8-1.6c2.7,1.7,3.4,5.2,1.7,7.8s-5.2,3.4-7.8,1.7
			C756.6,491.5,755.9,488.1,757.5,485.4 M816.7,490.9c-1.4-2.8-0.3-6.2,2.5-7.6s6.2-0.3,7.6,2.5c1.4,2.8,0.3,6.2-2.5,7.6
			S818.2,493.7,816.7,490.9 M851.1,442.5c-3.1-0.1-5.5-2.8-5.4-5.9s2.8-5.5,5.9-5.4s5.5,2.8,5.4,5.9
			C856.9,440.2,854.3,442.6,851.1,442.5 M826.4,388.5c-1.7,2.7-5.2,3.4-7.8,1.7c-2.7-1.7-3.4-5.2-1.7-7.8c1.7-2.7,5.2-3.4,7.8-1.7
			C827.4,382.4,828.1,385.8,826.4,388.5 M754.7,365.6c0.8,1.8,0.1,4-1.6,5c-1.8,0.8-4,0.1-5-1.6c-0.8-1.8-0.1-4,1.6-5
			C751.6,363,753.9,363.8,754.7,365.6 M711.5,433.4c2,0.1,3.5,1.8,3.4,3.8s-1.8,3.5-3.8,3.4s-3.5-1.8-3.4-3.8
			C707.9,434.8,709.5,433.4,711.5,433.4 M748.8,504.8c1.1-1.7,3.4-2.1,5.1-1c1.7,1.1,2.1,3.4,1,5.1s-3.4,2.1-5.1,1
			C748.1,508.7,747.6,506.5,748.8,504.8 M829.2,508.3c-0.8-1.8-0.1-4,1.6-5c1.8-0.8,4-0.1,5,1.6c0.8,1.8,0.1,4-1.6,5
			C832.3,510.9,830,510.2,829.2,508.3 M872.4,440.5c-2-0.1-3.5-1.8-3.4-3.8s1.8-3.5,3.8-3.4s3.5,1.8,3.4,3.8
			C876.1,438.9,874.4,440.5,872.4,440.5 M835.1,369.1c-1.1,1.7-3.4,2.1-5.1,1c-1.7-1.1-2.1-3.4-1-5.1s3.4-2.1,5.1-1
			S836.3,367.4,835.1,369.1 M755.9,408.6c3.1,2,4,6.1,2,9.2s-6.1,4-9.2,2c-3.1-2-4-6.1-2-9.2C748.6,407.4,752.9,406.5,755.9,408.6
			 M749.3,454c3.3-1.7,7.4-0.3,8.9,3c1.7,3.3,0.3,7.4-3,8.9c-3.3,1.7-7.4,0.3-8.9-3C744.7,459.6,746.1,455.7,749.3,454 M784.9,482.4
			c0.1-3.7,3.4-6.5,7.1-6.2c3.7,0.1,6.5,3.4,6.2,7.1c-0.1,3.7-3.4,6.5-7.1,6.2C787.6,489.2,784.7,486.1,784.9,482.4 M828.1,465.4
			c-3.1-2-4-6.1-2-9.2s6.1-4,9.2-2c3.1,2,4,6.1,2,9.2C835.3,466.6,831,467.4,828.1,465.4 M834.6,420c-3.3,1.7-7.4,0.3-8.9-3
			c-1.7-3.3-0.3-7.4,3-8.9c3.3-1.7,7.4-0.3,8.9,3C839.2,414.3,837.8,418.3,834.6,420 M798.5,391.5c-0.1,3.7-3.4,6.5-7.1,6.2
			c-3.7-0.1-6.5-3.4-6.2-7.1c0.1-3.7,3.4-6.5,7.1-6.2C795.9,384.7,798.8,387.8,798.5,391.5 M731.1,396.6c2.1,1.4,2.7,4.2,1.3,6.5
			c-1.4,2.1-4.2,2.8-6.5,1.3c-2.1-1.4-2.7-4.2-1.3-6.5C726,395.8,728.9,395.2,731.1,396.6 M726.5,469.5c2.3-1.1,5.1-0.3,6.2,2.1
			c1.1,2.3,0.3,5.1-2.1,6.2c-2.3,1.1-5.1,0.3-6.2-2.1C723.3,473.5,724.3,470.7,726.5,469.5 M787,509.9c0.1-2.5,2.4-4.5,5-4.4
			c2.5,0.1,4.5,2.4,4.4,5c-0.1,2.5-2.4,4.5-5,4.4C788.8,514.7,786.9,512.4,787,509.9 M852.8,477.3c-2.1-1.4-2.7-4.2-1.3-6.5
			c1.4-2.1,4.2-2.8,6.5-1.4c2.1,1.4,2.7,4.2,1.3,6.5C857.9,478.2,855,478.7,852.8,477.3 M857.4,404.4c-2.3,1.1-5.1,0.3-6.2-2.1
			c-1.1-2.3-0.3-5.1,2.1-6.2c2.3-1.1,5.1-0.3,6.2,2.1C860.6,400.4,859.6,403.3,857.4,404.4 M796.5,364c-0.1,2.5-2.4,4.5-5,4.4
			c-2.5-0.1-4.5-2.4-4.4-5c0.1-2.5,2.4-4.5,5-4.4C794.6,359.2,796.6,361.5,796.5,364"/>
	</g>
</g>
</svg>
